<svg id="Capa_1" data-name="Capa 1" xmlns="http://www.w3.org/2000/svg" viewBox="0 0 339.91 122.25"><defs><style>.cls-1{fill:#fff;}.cls-2{fill:none;stroke:#fff;stroke-linecap:round;stroke-linejoin:round;stroke-width:6px;}</style></defs><title>LogoBlanco</title><path class="cls-1" d="M-210.8,359.53h-6.7L-231,323.75h7.27l7.56,21.31c0.79,2.3,1.51,4.54,2.09,6.77h0.14c0.58-2.09,1.22-4.39,2-6.55l7.78-21.53h7Z" transform="translate(384.61 -283.85)"/><path class="cls-1" d="M-164.14,341.24h-23.4c-0.29,9.58,3.67,13.68,11.31,13.68a25.52,25.52,0,0,0,10.44-2.23l0.58,5.26a31.77,31.77,0,0,1-12.1,2.23c-11,0-16.92-5.76-16.92-18.36,0-10.73,5.83-18.72,16-18.72s14.33,6.84,14.33,15A26.77,26.77,0,0,1-164.14,341.24Zm-14.4-13.39c-4.68,0-8,3.53-8.71,8.79h16.71C-170.41,331.38-173.5,327.85-178.55,327.85Z" transform="translate(384.61 -283.85)"/><path class="cls-1" d="M-145.28,377.9a39.34,39.34,0,0,1-10.37-1.37l0.5-6.34a29.6,29.6,0,0,0,10.44,2c7.49,0,11.67-2.74,11.67-10.87v-2.81a33.76,33.76,0,0,1,.43-6.26h-0.14a12.33,12.33,0,0,1-11.59,7.92c-8.5,0-13.32-5.76-13.32-16.85,0-12.53,7.06-20.16,18.94-20.16a79.79,79.79,0,0,1,12.1,1v38.09C-126.63,369-129.8,377.9-145.28,377.9Zm12.17-48.82a27.13,27.13,0,0,0-6.34-.72c-6.84,0-11.38,4.1-11.38,14.4,0,7.71,2.52,12.1,7.92,12.1,6.48,0,9.79-7.56,9.79-13.9V329.08Z" transform="translate(384.61 -283.85)"/><path class="cls-1" d="M-95.53,359.53a44,44,0,0,1,.36-7.13h-0.14a12.77,12.77,0,0,1-12.17,7.78c-5.9,0-9.94-3.17-9.94-8.86,0-7.85,8-12.82,21.53-12.82v-2.66c0-5-1.94-7.63-7.85-7.63a22.56,22.56,0,0,0-10.8,3l-0.65-5.54A32.84,32.84,0,0,1-102.66,323c10.3,0,13.25,4.82,13.25,12v19.51c1.73,0.29,4.18.58,6.26,0.72V359A78.1,78.1,0,0,1-95.53,359.53ZM-95.89,343c-12.46,0-15.19,3.82-15.19,7.06,0,3,2.16,5,5.47,5,5.83,0,9.72-5.76,9.72-11.38V343Z" transform="translate(384.61 -283.85)"/><path class="cls-1" d="M-68.24,331.24l0.14,0.07A13.09,13.09,0,0,1-55.5,323c8.21,0,10.8,5.11,10.8,11.45v25.06h-6.48V336.42c0-5-1.37-8-6.12-8-5.9,0-10.15,6-10.15,13.9v17.21h-6.48V328.79c-1.73-.29-4.18-0.58-6.26-0.72v-3.82a79.32,79.32,0,0,1,12.53-.5A43.78,43.78,0,0,1-68.24,331.24Z" transform="translate(384.61 -283.85)"/><path class="cls-2" d="M-351.81,286.87a35.06,35.06,0,0,0-12.06,4.34,36.24,36.24,0,0,0-15.89,42.49" transform="translate(384.61 -283.85)"/><path class="cls-2" d="M-302.43,334a46.82,46.82,0,0,1-6.17,23.3c-0.76,0-1.52.05-2.3,0.05a47.06,47.06,0,0,1-47.05-47.05,46.82,46.82,0,0,1,6.17-23.3c0.76,0,1.52-.05,2.3-0.05a46.83,46.83,0,0,1,30.13,10.92A46.92,46.92,0,0,1-302.43,334Z" transform="translate(384.61 -283.85)"/><path class="cls-2" d="M-379.76,333.7c3.71,11,13.85,19,21.57,27.21l32,33.88,7.84,8.31,39.15-41.68c5.66-6,11.78-11.84,17.08-18.18,10-12,8.32-31.1-.94-42.87-10.88-13.83-30.13-17.12-44.91-9.52" transform="translate(384.61 -283.85)"/><path class="cls-2" d="M-322.74,333.7S-332.9,308-351.85,287" transform="translate(384.61 -283.85)"/></svg>